# xmcd
#
# Track frame offsets: 
#        150
#        20756
#        45643
#        73906
#        90320
#        105039
#        123628
#        144807
#        160250
#        177914
#        195643
#        211799
#        228342
#        241190
#        249487
#
# Disc length: 3567 seconds
#
# Revision: 5
# Processed by: cddbd v1.5.2PL0 Copyright (c) Steve Scherf et al.
# Submitted via: ExactAudioCopyFreeDBPlugin 1.0
#
DISCID=be0ded0f
DTITLE=Various Artist - Strummin' With The Devil: The Southern Side O
DTITLE=f Van Halen [CD_9090)
DYEAR=2006
DGENRE=Bluegrass
TTITLE0=David Lee Roth With The John Jorgenson Bluegrass Band - Jump
TTITLE1=David Lee Roth With The John Jorgenson Bluegrass Band - Jamie'
TTITLE1=s Cryin'
TTITLE2=Blue Highway - I'll Wait
TTITLE3=The John Cowan Band - Runnin' With The Devil
TTITLE4=Mountain Heart - Dance The Night Away
TTITLE5=Iron Horse - Ain't Talkin' 'Bout Love
TTITLE6=David Grisman And Sons - Hot For Teacher
TTITLE7=Tony Trischka, Dudley Connell, Marshall Wilburn, Dave McLaughl
TTITLE7=in - Feel Your Love Tonight
TTITLE8=Cornbread Red - Panama
TTITLE9=Iron Horse - Unchained
TTITLE10=Larry Cordle And Lonesome Standard Time - Ice Cream Man
TTITLE11=The John Jorgenson Band - And The Cradle Will Rock...
TTITLE12=The Nashville Bluegrass Band - Could This Be Magic?
TTITLE13=Dennis Caplinger - Eruption
TTITLE14=David Lee Roth With The John Jorgenson Bluegrass Band - Jamie
TTITLE14=s Cryin' [Radio Edit]
EXTD=YEAR: 2006
EXTT0=
EXTT1=
EXTT2=
EXTT3=
EXTT4=
EXTT5=
EXTT6=
EXTT7=
EXTT8=
EXTT9=
EXTT10=
EXTT11=
EXTT12=
EXTT13=
EXTT14=
PLAYORDER=
